PathFileType	4	(X/Y/Z)	C:\Users\WrightLab\Desktop\Jo\P5V12.trc
DataRate	CameraRate	NumFrames	NumMarkers	Units	OrigDataRate	OrigDataStartFrame	OrigNumFrames
100.00	100.00	      9	19	mm	100.00	1040	      2078
Frame#	Time	Headset_Front			Headset_Back			Headset_Left			Headset_Right			Left_Shoulder			Right_Shoulder			Sternum			C7			Left Elbow			Right Elbow			Left Wrist			Right Wrist			Left ASIS			Right ASIS			S2			Left Knee			Right Knee			Left Ankle			Right Ankle			
		X1	Y1	Z1	X2	Y2	Z2	X3	Y3	Z3	X4	Y4	Z4	X5	Y5	Z5	X6	Y6	Z6	X7	Y7	Z7	X8	Y8	Z8	X9	Y9	Z9	X10	Y10	Z10	X11	Y11	Z11	X12	Y12	Z12	X13	Y13	Z13	X14	Y14	Z14	X15	Y15	Z15	X16	Y16	Z16	X17	Y17	Z17	X18	Y18	Z18	X19	Y19	Z19	

1040	10.390	-290.31531	1546.75989	751.88971	-166.23056	1745.51184	780.42706							-14.74398	1452.76294	937.95728	-279.86554	1469.45654	880.37103	-152.38451	1322.03430	721.36639	36.80854	1538.89502	703.03278	42.45885	1152.49597	977.67627	-47.03979	1260.31885	392.43399	-125.65818	1025.21094	1061.68103	-254.13043	1151.97302	422.72308	-162.57236	936.74530	832.78821	-174.57893	981.40021	545.92340	100.40305	990.98596	662.42010	-169.22298	522.21985	877.90930	-156.98061	505.70456	524.90607	-101.54914	114.31651	889.96100	-1.46769	113.63936	595.13318	
1041	10.400	-289.86551	1544.76538	752.51697	-165.14452	1743.23230	781.34930							-14.47587	1449.75403	937.83209	-278.47269	1466.77942	880.43982	-151.77785	1320.70801	721.04004	37.40807	1537.43005	703.33685	42.96975	1148.70935	975.99725	-48.10593	1261.08948	391.39804	-125.88403	1021.29675	1061.32068	-255.05592	1152.27063	421.57516	-161.42241	935.55536	831.04639	-174.31447	980.75458	543.60138	100.78356	989.69275	659.33545	-169.29478	520.70190	874.75684	-157.14630	505.53577	523.65692	-100.92725	114.38894	889.48688	-1.75374	113.59018	594.90057	
1042	10.410	-289.04260	1542.91956	753.35150	-164.98033	1741.41711	782.61914							-13.29306	1446.82996	937.07361	-278.07883	1464.88049	881.38043	-150.94556	1319.11719	719.82629	38.44242	1535.72156	705.65015	41.65868	1146.30225	976.09290	-49.37371	1261.33569	389.71979	-125.26473	1017.52515	1061.07324	-256.08710	1152.77588	420.57858	-160.15080	934.03320	829.20599	-174.10603	980.28741	541.98816	101.08757	988.59003	656.68628	-168.74442	519.78516	871.89423	-157.49861	505.25656	521.92450	-100.95972	114.38577	889.43719	-2.06509	113.13665	594.27460	
1043	10.420	-288.07480	1540.77368	753.69745	-164.29501	1739.61072	783.71381							-12.34729	1444.24744	936.79480	-276.94608	1462.51636	881.78870	-150.98235	1318.07434	719.41766	38.46898	1535.03308	703.35864	41.75384	1143.05493	974.31665	-50.17187	1261.58997	388.97107	-124.56441	1013.56787	1060.70898	-256.60367	1153.19543	418.94000	-159.28403	932.84747	827.35870	-174.04596	979.74646	539.95758	100.84534	987.75647	654.22668	-168.59953	518.63641	868.63440	-157.92593	504.87567	521.09521	-101.03210	114.36431	889.35980	-2.27251	112.99398	593.99628	
1044	10.430	-287.50293	1539.12195	754.55969	-163.95709	1737.78418	784.89838							-11.16186	1441.66516	936.38916	-276.48871	1460.13184	882.39539	-150.59486	1316.59485	718.65881	39.11083	1533.90588	702.99689	41.73185	1140.81714	973.53314	-50.83673	1262.15466	387.62479	-124.10594	1010.30933	1060.41992	-257.17453	1153.46753	418.54285	-159.50797	932.18518	826.02887	-174.08299	979.30707	538.36951	101.87244	986.94604	651.62701	-168.92778	517.33972	864.81891	-158.81035	505.38403	519.01538	-101.04173	114.38200	889.30206	-2.58933	112.70995	593.92914	
1045	10.440	-286.71326	1536.93823	754.89227	-163.89952	1736.29688	786.12274							-9.71911	1439.71863	935.92548	-274.94186	1458.10474	882.81531	-150.28947	1315.88647	718.20673	39.94896	1532.66663	703.59613	41.32244	1137.95874	972.44403	-51.22748	1262.42480	385.91776	-123.47897	1007.24988	1059.87231	-259.12469	1153.96899	417.59143	-158.86266	931.01178	824.11987	-173.99297	978.74481	536.50165	102.26551	985.61615	648.71851	-169.02821	516.17224	860.94421	-158.99413	505.08557	517.71698	-101.01253	114.43245	889.23663	-2.66854	112.63350	593.88800	
1046	10.450	-285.96133	1535.72729	755.59521	-163.05328	1734.85828	786.95825							-8.04755	1437.78223	935.16559	-273.17340	1455.78333	882.57245	-148.95781	1314.78210	716.80951	40.82301	1531.55151	702.92493	41.92365	1135.82898	970.79364	-51.95386	1262.97937	384.73596	-122.68127	1004.45740	1059.41089	-259.54071	1154.46387	416.46478	-160.53101	930.96582	822.46442	-174.03625	978.26068	535.09167	102.27703	985.18134	646.60980	-169.48061	514.81793	857.08655	-159.54036	504.83197	516.99408	-101.43320	115.09134	889.07300	-2.83828	112.65763	593.48749	
1047	10.460	-285.26825	1534.37402	756.20862	-162.36075	1733.22034	787.96429							-7.11148	1436.21924	934.48419	-272.43384	1453.76514	882.72455	-149.01147	1313.83069	716.45728	41.28392	1530.62903	703.51556	41.24223	1134.30908	968.51898	-52.66560	1263.13086	383.49026	-122.62667	1002.42450	1058.66394	-260.15604	1155.10437	415.32507	-159.27048	929.64899	819.77979	-174.09340	977.82837	533.21411	101.83175	984.21716	644.04980	-169.90265	514.12988	854.13916	-159.96710	505.03769	516.07251	-101.52845	115.15070	889.06403	-2.73803	112.53156	593.40625	
1048	10.470	-284.63846	1532.46570	756.73071	-162.62003	1732.10144	789.09637							-5.77721	1434.68347	933.87097	-270.94406	1452.16467	882.48798	-148.85283	1313.35437	716.03912	41.66558	1529.87793	702.54144	41.73817	1132.25989	968.52197	-53.72188	1263.71899	382.24969	-122.09355	1000.30261	1057.98572	-260.91858	1155.76343	414.30435	-158.21120	927.65851	818.65338	-174.46362	977.62305	531.52002	101.45110	983.53436	642.02057	-170.18857	513.23407	850.29596	-160.23795	504.82980	515.22638	-101.71203	115.06133	888.51031	-2.76606	112.39345	593.03229	
